<svg xmlns="http://www.w3.org/2000/svg" xmlns:xlink="http://www.w3.org/1999/xlink" width="500" zoomAndPan="magnify" viewBox="0 0 375 374.999991" height="500" preserveAspectRatio="xMidYMid meet" version="1.0"><defs><clipPath id="47a8b8cc61"><path d="M 0 69.121094 L 292 69.121094 L 292 306 L 0 306 Z M 0 69.121094 " clip-rule="nonzero"/></clipPath><clipPath id="3844e97a78"><path d="M 83 69.121094 L 375 69.121094 L 375 306 L 83 306 Z M 83 69.121094 " clip-rule="nonzero"/></clipPath></defs><rect x="-37.5" width="450" fill="#ffffff" y="-37.499999" height="449.999989" fill-opacity="1"/><rect x="-37.5" width="450" fill="#ffffff" y="-37.499999" height="449.999989" fill-opacity="1"/><g clip-path="url(#47a8b8cc61)"><path fill="#25adeb" d="M 0.0078125 69.222656 L 17.351562 75.257812 L 92.605469 101.425781 L 116.589844 109.761719 L 102.730469 117.839844 L 88.085938 126.367188 L 145.890625 221.644531 L 156.226562 204.597656 L 192.722656 144.445312 L 203.683594 126.367188 L 196.363281 122.101562 L 175.179688 109.757812 L 201.074219 100.757812 L 274.417969 75.257812 L 291.765625 69.222656 L 276.464844 94.03125 L 274.417969 97.355469 L 259.878906 120.9375 L 218.835938 187.496094 L 182.257812 246.816406 L 156.117188 289.210938 L 145.882812 305.804688 L 135.648438 289.210938 L 17.351562 97.355469 L 0.0078125 69.222656 " fill-opacity="1" fill-rule="nonzero"/></g><path fill="#fd2e9f" d="M 182.257812 246.816406 L 156.226562 204.597656 L 192.722656 144.445312 L 218.835938 187.496094 L 182.257812 246.816406 " fill-opacity="1" fill-rule="nonzero"/><g clip-path="url(#3844e97a78)"><path fill="#0184b6" d="M 374.992188 69.222656 L 357.648438 97.355469 L 239.347656 289.210938 L 229.113281 305.804688 L 218.878906 289.210938 L 100.582031 97.355469 L 83.234375 69.222656 L 100.582031 75.257812 L 199.820312 109.765625 L 171.3125 126.367188 L 229.117188 221.644531 L 286.914062 126.367188 L 258.410156 109.757812 L 357.648438 75.257812 L 374.992188 69.222656 " fill-opacity="1" fill-rule="nonzero"/></g></svg>